<svg width="24" height="29" viewBox="0 0 24 29" fill="none" xmlns="http://www.w3.org/2000/svg">
<path d="M22.8771 9.281C18.59 13.7699 18.8398 17.5276 23.8209 20.7723C22.6495 23.3255 21.4689 25.9546 18.9716 27.49C18.0733 28.0423 16.5047 28.0875 15.4733 27.7183C13.4119 26.9802 11.5045 26.845 9.51768 27.7463C7.9665 28.4502 6.56349 28.2415 5.22276 27.1536C1.42437 24.0732 -0.97889 16.3819 0.38648 11.7055C1.45653 8.04053 5.631 4.58741 10.1566 7.01052C11.8539 7.91905 13.4146 7.48617 15.0613 6.81204C18.2886 5.49116 20.8318 6.3422 22.8771 9.281Z" fill="#202020"/>
<path d="M17.0436 0C17.392 3.36996 15.2009 6.08804 11.9113 6.48294C11.1209 3.56057 13.5097 0.479761 17.0436 0Z" fill="#202020"/>
</svg>
