<svg width="94" height="26" viewBox="0 0 94 26" fill="none" xmlns="http://www.w3.org/2000/svg">
<path d="M4.56845 8.59203H1.88018V0.173828H4.56845C5.83896 0.173828 6.86547 0.581907 7.64797 1.39806C8.43047 2.20581 8.82173 3.20287 8.82173 4.38924C8.82173 5.58403 8.43047 6.58529 7.64797 7.39304C6.87389 8.19237 5.84738 8.59203 4.56845 8.59203ZM4.56845 7.93574C5.64544 7.93574 6.49526 7.59918 7.11789 6.92606C7.74894 6.25294 8.06447 5.40733 8.06447 4.38924C8.06447 3.37115 7.75315 2.52554 7.13051 1.85242C6.50788 1.17089 5.65386 0.83012 4.56845 0.83012H2.59958V7.93574H4.56845Z" fill="#202020"/>
<path d="M13.1682 8.74348C12.2931 8.74348 11.5863 8.43637 11.0479 7.82215C10.5094 7.20793 10.2401 6.44646 10.2401 5.53775C10.2401 4.62904 10.5094 3.87178 11.0479 3.26597C11.5863 2.65175 12.2931 2.34464 13.1682 2.34464C14.0516 2.34464 14.7626 2.65175 15.3011 3.26597C15.8396 3.87178 16.1089 4.62904 16.1089 5.53775C16.1089 6.44646 15.8396 7.20793 15.3011 7.82215C14.7626 8.43637 14.0516 8.74348 13.1682 8.74348ZM13.1682 8.1503C13.8581 8.1503 14.4008 7.89788 14.7963 7.39304C15.2002 6.87978 15.4021 6.26135 15.4021 5.53775C15.4021 4.82256 15.2002 4.21255 14.7963 3.70771C14.4008 3.19445 13.8581 2.93783 13.1682 2.93783C12.4866 2.93783 11.9439 3.19445 11.5401 3.70771C11.1446 4.21255 10.9469 4.82256 10.9469 5.53775C10.9469 6.25294 11.1446 6.86716 11.5401 7.38042C11.9439 7.89367 12.4866 8.1503 13.1682 8.1503Z" fill="#202020"/>
<path d="M23.6599 8.59203H23.0288L21.325 3.37956L19.6085 8.59203H18.9775L16.996 2.49609H17.7028L19.3182 7.6707L21.0347 2.49609H21.6026L23.3191 7.6707L24.9346 2.49609H25.6414L23.6599 8.59203Z" fill="#202020"/>
<path d="M31.6458 8.59203H30.9895V4.46497C30.9895 3.90964 30.8633 3.51839 30.6109 3.29121C30.3585 3.05562 29.9925 2.93783 29.5129 2.93783C29.1342 2.93783 28.7598 3.03879 28.3896 3.24073C28.0194 3.44267 27.7333 3.69088 27.5314 3.98537V8.59203H26.8751V2.49609H27.5314V3.41742C27.7754 3.13135 28.0993 2.88314 28.5032 2.67279C28.907 2.45402 29.3151 2.34464 29.7274 2.34464C31.0063 2.34464 31.6458 3.00514 31.6458 4.32614V8.59203Z" fill="#202020"/>
<path d="M34.3472 8.59203H33.6909V0.173828H34.3472V8.59203Z" fill="#202020"/>
<path d="M38.9648 8.74348C38.0897 8.74348 37.383 8.43637 36.8445 7.82215C36.306 7.20793 36.0367 6.44646 36.0367 5.53775C36.0367 4.62904 36.306 3.87178 36.8445 3.26597C37.383 2.65175 38.0897 2.34464 38.9648 2.34464C39.8483 2.34464 40.5592 2.65175 41.0977 3.26597C41.6362 3.87178 41.9055 4.62904 41.9055 5.53775C41.9055 6.44646 41.6362 7.20793 41.0977 7.82215C40.5592 8.43637 39.8483 8.74348 38.9648 8.74348ZM38.9648 8.1503C39.6547 8.1503 40.1974 7.89788 40.5929 7.39304C40.9968 6.87978 41.1987 6.26135 41.1987 5.53775C41.1987 4.82256 40.9968 4.21255 40.5929 3.70771C40.1974 3.19445 39.6547 2.93783 38.9648 2.93783C38.2833 2.93783 37.7406 3.19445 37.3367 3.70771C36.9412 4.21255 36.7435 4.82256 36.7435 5.53775C36.7435 6.25294 36.9412 6.86716 37.3367 7.38042C37.7406 7.89367 38.2833 8.1503 38.9648 8.1503Z" fill="#202020"/>
<path d="M48.1313 8.59203H47.475V7.87263C46.9449 8.4532 46.255 8.74348 45.4052 8.74348C44.8414 8.74348 44.345 8.56258 43.9159 8.20078C43.4868 7.83056 43.2722 7.33414 43.2722 6.7115C43.2722 6.08045 43.4826 5.58823 43.9033 5.23485C44.3324 4.87305 44.833 4.69214 45.4052 4.69214C46.2634 4.69214 46.9533 4.98243 47.475 5.56299V4.32614C47.475 3.88861 47.3193 3.54784 47.008 3.30383C46.6967 3.05141 46.3055 2.9252 45.8343 2.9252C45.0854 2.9252 44.4502 3.2239 43.9285 3.8213L43.5625 3.36694C44.1935 2.68541 44.976 2.34464 45.91 2.34464C46.5663 2.34464 47.1006 2.50871 47.5129 2.83686C47.9251 3.165 48.1313 3.65302 48.1313 4.30089V8.59203ZM45.6323 8.22602C46.4317 8.22602 47.0459 7.94836 47.475 7.39304V6.05521C47.0375 5.49147 46.4232 5.20961 45.6323 5.20961C45.1359 5.20961 44.732 5.35264 44.4207 5.63872C44.1178 5.92479 43.9664 6.2866 43.9664 6.72412C43.9664 7.16165 44.1178 7.52345 44.4207 7.80953C44.732 8.08719 45.1359 8.22602 45.6323 8.22602Z" fill="#202020"/>
<path d="M55.344 8.59203H54.6751V7.62021C54.4479 7.94836 54.145 8.21761 53.7664 8.42796C53.3961 8.63831 52.9923 8.74348 52.5547 8.74348C51.7386 8.74348 51.0781 8.4532 50.5733 7.87263C50.0768 7.29207 49.8286 6.51798 49.8286 5.55037C49.8286 4.59118 50.081 3.81709 50.5859 3.22811C51.0907 2.63913 51.747 2.34464 52.5547 2.34464C53.4298 2.34464 54.1366 2.72327 54.6751 3.48053V0.173828H55.344V8.59203ZM52.6683 8.1503C53.0806 8.1503 53.4719 8.04512 53.8421 7.83477C54.2123 7.62442 54.49 7.36779 54.6751 7.06489V4.04847C54.49 3.73716 54.2123 3.47632 53.8421 3.26597C53.4719 3.04721 53.0806 2.93783 52.6683 2.93783C52.012 2.93783 51.4904 3.18604 51.1033 3.68246C50.7247 4.17048 50.5354 4.79311 50.5354 5.55037C50.5354 6.30763 50.7247 6.93027 51.1033 7.41828C51.4904 7.90629 52.012 8.1503 52.6683 8.1503Z" fill="#202020"/>
<path d="M63.2331 8.74348C62.358 8.74348 61.6513 8.43637 61.1128 7.82215C60.5743 7.20793 60.305 6.44646 60.305 5.53775C60.305 4.62904 60.5743 3.87178 61.1128 3.26597C61.6513 2.65175 62.358 2.34464 63.2331 2.34464C64.1166 2.34464 64.8276 2.65175 65.366 3.26597C65.9045 3.87178 66.1738 4.62904 66.1738 5.53775C66.1738 6.44646 65.9045 7.20793 65.366 7.82215C64.8276 8.43637 64.1166 8.74348 63.2331 8.74348ZM63.2331 8.1503C63.923 8.1503 64.4657 7.89788 64.8612 7.39304C65.2651 6.87978 65.467 6.26135 65.467 5.53775C65.467 4.82256 65.2651 4.21255 64.8612 3.70771C64.4657 3.19445 63.923 2.93783 63.2331 2.93783C62.5516 2.93783 62.0089 3.19445 61.605 3.70771C61.2095 4.21255 61.0118 4.82256 61.0118 5.53775C61.0118 6.25294 61.2095 6.86716 61.605 7.38042C62.0089 7.89367 62.5516 8.1503 63.2331 8.1503Z" fill="#202020"/>
<path d="M72.6394 8.59203H71.9831V4.46497C71.9831 3.90964 71.8569 3.51839 71.6045 3.29121C71.352 3.05562 70.986 2.93783 70.5064 2.93783C70.1278 2.93783 69.7534 3.03879 69.3832 3.24073C69.013 3.44267 68.7269 3.69088 68.5249 3.98537V8.59203H67.8686V2.49609H68.5249V3.41742C68.7689 3.13135 69.0929 2.88314 69.4968 2.67279C69.9006 2.45402 70.3087 2.34464 70.721 2.34464C71.9999 2.34464 72.6394 3.00514 72.6394 4.32614V8.59203Z" fill="#202020"/>
<path d="M79.2759 8.74348C78.4765 8.74348 78.0769 8.30175 78.0769 7.41828V3.07666H77.0672V2.49609H78.0769V0.83012H78.7458V2.49609H79.9826V3.07666H78.7458V7.31731C78.7458 7.87263 78.9561 8.1503 79.3768 8.1503C79.6545 8.1503 79.8817 8.05354 80.0584 7.86001L80.3108 8.36485C80.0415 8.61727 79.6966 8.74348 79.2759 8.74348Z" fill="#202020"/>
<path d="M86.1971 8.59203H85.5408V4.43972C85.5408 3.8844 85.4146 3.49736 85.1622 3.27859C84.9098 3.05141 84.5437 2.93783 84.0641 2.93783C83.6855 2.93783 83.3111 3.03879 82.9409 3.24073C82.5707 3.44267 82.2846 3.69088 82.0826 3.98537V8.59203H81.4264V0.173828H82.0826V3.41742C82.3267 3.13135 82.6506 2.88314 83.0545 2.67279C83.4583 2.45402 83.8664 2.34464 84.2787 2.34464C85.5576 2.34464 86.1971 2.99672 86.1971 4.30089V8.59203Z" fill="#202020"/>
<path d="M90.9431 8.74348C90.0512 8.74348 89.3192 8.44479 88.747 7.84739C88.1749 7.25 87.8888 6.48012 87.8888 5.53775C87.8888 4.64587 88.1665 3.89281 88.7218 3.27859C89.2855 2.65596 89.9881 2.34464 90.8295 2.34464C91.7214 2.34464 92.4239 2.65596 92.9372 3.27859C93.4504 3.89281 93.7071 4.65849 93.7071 5.57561V5.75231H88.6082C88.6419 6.44226 88.8732 7.01861 89.3023 7.48138C89.7315 7.94415 90.2952 8.17554 90.9936 8.17554C91.8013 8.17554 92.466 7.89367 92.9877 7.32993L93.3284 7.75905C92.6974 8.41534 91.9023 8.74348 90.9431 8.74348ZM93.0382 5.23485C93.0297 4.64587 92.832 4.11158 92.445 3.63198C92.0663 3.15238 91.5236 2.91258 90.8169 2.91258C90.1522 2.91258 89.6221 3.15238 89.2266 3.63198C88.8396 4.10316 88.6334 4.63745 88.6082 5.23485H93.0382Z" fill="#202020"/>
<path d="M9.51588 23.1547H7.47128L6.95382 21.7285H3.34421L2.81413 23.1547H0.769531L4.02575 14.7365H6.27228L9.51588 23.1547ZM6.4616 20.1509L5.14902 16.5287L3.83643 20.1509H6.4616Z" fill="#202020"/>
<path d="M13.7388 23.3062C12.9731 23.3062 12.3463 22.9948 11.8583 22.3722V25.477H10.2554V17.0588H11.8583V17.8287C12.3379 17.2144 12.9647 16.9073 13.7388 16.9073C14.5381 16.9073 15.186 17.1934 15.6824 17.7656C16.1873 18.3293 16.4397 19.1076 16.4397 20.1004C16.4397 21.0933 16.1873 21.8758 15.6824 22.4479C15.186 23.0201 14.5381 23.3062 13.7388 23.3062ZM13.2339 21.88C13.6967 21.88 14.0669 21.7159 14.3446 21.3878C14.6307 21.0596 14.7737 20.6305 14.7737 20.1004C14.7737 19.5788 14.6307 19.1539 14.3446 18.8257C14.0669 18.4976 13.6967 18.3335 13.2339 18.3335C12.9731 18.3335 12.7123 18.4008 12.4514 18.5354C12.1906 18.6701 11.9929 18.8341 11.8583 19.0277V21.1858C11.9929 21.3794 12.1906 21.5434 12.4514 21.6781C12.7207 21.8127 12.9815 21.88 13.2339 21.88Z" fill="#202020"/>
<path d="M21.0969 23.3062C20.3312 23.3062 19.7044 22.9948 19.2164 22.3722V25.477H17.6135V17.0588H19.2164V17.8287C19.696 17.2144 20.3228 16.9073 21.0969 16.9073C21.8963 16.9073 22.5441 17.1934 23.0406 17.7656C23.5454 18.3293 23.7978 19.1076 23.7978 20.1004C23.7978 21.0933 23.5454 21.8758 23.0406 22.4479C22.5441 23.0201 21.8963 23.3062 21.0969 23.3062ZM20.5921 21.88C21.0549 21.88 21.4251 21.7159 21.7027 21.3878C21.9888 21.0596 22.1318 20.6305 22.1318 20.1004C22.1318 19.5788 21.9888 19.1539 21.7027 18.8257C21.4251 18.4976 21.0549 18.3335 20.5921 18.3335C20.3312 18.3335 20.0704 18.4008 19.8096 18.5354C19.5487 18.6701 19.351 18.8341 19.2164 19.0277V21.1858C19.351 21.3794 19.5487 21.5434 19.8096 21.6781C20.0788 21.8127 20.3397 21.88 20.5921 21.88Z" fill="#202020"/>
<path d="M31.2299 23.3062C29.7322 23.3062 28.5458 22.8602 27.6708 21.9683L28.6426 20.6053C29.3662 21.3625 30.2581 21.7412 31.3183 21.7412C31.781 21.7412 32.1386 21.6528 32.391 21.4761C32.6519 21.291 32.7823 21.068 32.7823 20.8072C32.7823 20.58 32.6603 20.3907 32.4163 20.2393C32.1807 20.0878 31.882 19.9784 31.5202 19.9111C31.1668 19.8438 30.7798 19.747 30.3591 19.6208C29.9384 19.4946 29.5471 19.3516 29.1853 19.1917C28.8319 19.0319 28.5332 18.7794 28.2892 18.4345C28.0536 18.0895 27.9358 17.6688 27.9358 17.1724C27.9358 16.4488 28.2261 15.843 28.8067 15.3549C29.3872 14.8585 30.1613 14.6103 31.1289 14.6103C32.4668 14.6103 33.5606 15.0016 34.4104 15.7841L33.4133 17.0966C32.7486 16.4824 31.9325 16.1753 30.9649 16.1753C30.5862 16.1753 30.2917 16.251 30.0814 16.4025C29.871 16.5539 29.7659 16.7601 29.7659 17.0209C29.7659 17.2228 29.8837 17.3953 30.1193 17.5384C30.3633 17.673 30.662 17.774 31.0153 17.8413C31.3771 17.9086 31.7642 18.0096 32.1765 18.1442C32.5972 18.2704 32.9842 18.4176 33.3376 18.5859C33.6994 18.7458 33.9981 19.0024 34.2337 19.3558C34.4777 19.7008 34.5997 20.1173 34.5997 20.6053C34.5997 21.413 34.3094 22.0651 33.7289 22.5615C33.1567 23.058 32.3237 23.3062 31.2299 23.3062Z" fill="#202020"/>
<path d="M37.6406 23.3062C37.0768 23.3062 36.6477 23.1631 36.3532 22.8771C36.0588 22.591 35.9115 22.1787 35.9115 21.6402V18.4597H34.9018V17.0588H35.9115V15.3928H37.527V17.0588H38.7638V18.4597H37.527V21.2111C37.527 21.4046 37.5775 21.5645 37.6784 21.6907C37.7794 21.8169 37.914 21.88 38.0823 21.88C38.3347 21.88 38.5198 21.8211 38.6376 21.7033L38.9784 22.9149C38.6839 23.1758 38.238 23.3062 37.6406 23.3062Z" fill="#202020"/>
<path d="M45.0351 22.3848C44.4461 22.9991 43.6636 23.3062 42.6876 23.3062C41.7116 23.3062 40.9291 22.9991 40.3401 22.3848C39.7595 21.7622 39.4692 21.0007 39.4692 20.1004C39.4692 19.2001 39.7595 18.4429 40.3401 17.8287C40.9291 17.2144 41.7116 16.9073 42.6876 16.9073C43.6636 16.9073 44.4461 17.2144 45.0351 17.8287C45.6241 18.4429 45.9186 19.2001 45.9186 20.1004C45.9186 21.0007 45.6241 21.7622 45.0351 22.3848ZM41.5517 21.3752C41.8294 21.7117 42.208 21.88 42.6876 21.88C43.1672 21.88 43.5458 21.7117 43.8235 21.3752C44.1096 21.0302 44.2526 20.6053 44.2526 20.1004C44.2526 19.604 44.1096 19.1875 43.8235 18.851C43.5458 18.506 43.1672 18.3335 42.6876 18.3335C42.208 18.3335 41.8294 18.506 41.5517 18.851C41.274 19.1875 41.1352 19.604 41.1352 20.1004C41.1352 20.6053 41.274 21.0302 41.5517 21.3752Z" fill="#202020"/>
<path d="M48.7106 23.1547H47.1077V17.0588H48.7106V17.8918C48.9377 17.6057 49.228 17.3701 49.5814 17.185C49.9348 16.9999 50.2924 16.9073 50.6542 16.9073V18.4723C50.5448 18.4471 50.3976 18.4345 50.2125 18.4345C49.9432 18.4345 49.6571 18.5018 49.3542 18.6364C49.0513 18.771 48.8368 18.9351 48.7106 19.1286V23.1547Z" fill="#202020"/>
<path d="M54.5207 23.3062C53.5783 23.3062 52.8 23.0117 52.1858 22.4227C51.5716 21.8337 51.2645 21.0596 51.2645 20.1004C51.2645 19.2001 51.5589 18.4429 52.1479 17.8287C52.7453 17.2144 53.5026 16.9073 54.4197 16.9073C55.3284 16.9073 56.0646 17.2186 56.6284 17.8413C57.1921 18.4555 57.474 19.2632 57.474 20.2645V20.6179H52.943C52.9935 21.0218 53.1744 21.3583 53.4857 21.6276C53.7971 21.8968 54.2009 22.0314 54.6974 22.0314C54.9666 22.0314 55.2569 21.9768 55.5682 21.8674C55.8879 21.758 56.1404 21.6107 56.3255 21.4256L57.0322 22.4606C56.418 23.0243 55.5808 23.3062 54.5207 23.3062ZM55.9216 19.5325C55.8964 19.1875 55.7575 18.8762 55.5051 18.5985C55.2611 18.3209 54.8993 18.182 54.4197 18.182C53.9653 18.182 53.612 18.3209 53.3595 18.5985C53.1071 18.8678 52.9599 19.1791 52.9178 19.5325H55.9216Z" fill="#202020"/>
</svg>
