<svg width="70" height="27" viewBox="0 0 70 27" fill="none" xmlns="http://www.w3.org/2000/svg">
<path d="M5.27583 9.2045C4.07263 9.2045 3.05874 8.79643 2.23417 7.98027C1.41801 7.16411 1.00994 6.11657 1.00994 4.83764C1.00994 3.55871 1.41801 2.51538 2.23417 1.70763C3.05874 0.891477 4.07263 0.483398 5.27583 0.483398C6.55476 0.483398 7.61071 0.962996 8.4437 1.92219L7.901 2.31344C7.59809 1.95164 7.21526 1.66556 6.75249 1.45522C6.29813 1.24487 5.80591 1.13969 5.27583 1.13969C4.27456 1.13969 3.43737 1.48466 2.76425 2.17461C2.09955 2.86456 1.76719 3.75224 1.76719 4.83764C1.76719 5.91463 2.09955 6.80231 2.76425 7.50067C3.43737 8.19903 4.27456 8.54821 5.27583 8.54821C5.78908 8.54821 6.26027 8.44725 6.68938 8.24531C7.11849 8.04337 7.47188 7.80357 7.74954 7.52591V5.50655H4.56905V4.86288H8.46894V7.80358C7.63596 8.73753 6.57159 9.2045 5.27583 9.2045Z" fill="#202020"/>
<path d="M12.9738 9.19188C12.082 9.19188 11.3499 8.89319 10.7778 8.29579C10.2056 7.6984 9.91957 6.92852 9.91957 5.98615C9.91957 5.09427 10.1972 4.34122 10.7526 3.72699C11.3163 3.10436 12.0189 2.79304 12.8603 2.79304C13.7521 2.79304 14.4547 3.10436 14.968 3.72699C15.4812 4.34122 15.7378 5.10689 15.7378 6.02401V6.20071H10.639C10.6726 6.89066 10.904 7.46702 11.3331 7.92979C11.7622 8.39255 12.326 8.62394 13.0243 8.62394C13.8321 8.62394 14.4968 8.34207 15.0184 7.77833L15.3592 8.20745C14.7282 8.86374 13.933 9.19188 12.9738 9.19188ZM15.0689 5.68325C15.0605 5.09427 14.8628 4.55998 14.4757 4.08038C14.0971 3.60078 13.5544 3.36099 12.8476 3.36099C12.1829 3.36099 11.6528 3.60078 11.2574 4.08038C10.8703 4.55157 10.6642 5.08585 10.639 5.68325H15.0689Z" fill="#202020"/>
<path d="M18.7591 9.19188C17.9598 9.19188 17.5601 8.75015 17.5601 7.86668V3.52506H16.5504V2.94449H17.5601V1.27852H18.229V2.94449H19.4659V3.52506H18.229V7.76571C18.229 8.32104 18.4394 8.5987 18.8601 8.5987C19.1377 8.5987 19.3649 8.50194 19.5416 8.30841L19.794 8.81325C19.5248 9.06567 19.1798 9.19188 18.7591 9.19188Z" fill="#202020"/>
<path d="M24.5039 1.9853C24.3693 1.9853 24.2515 1.93481 24.1505 1.83384C24.0496 1.73288 23.9991 1.61508 23.9991 1.48046C23.9991 1.34583 24.0496 1.23224 24.1505 1.13969C24.2515 1.03872 24.3693 0.988238 24.5039 0.988238C24.6469 0.988238 24.7647 1.03872 24.8573 1.13969C24.9583 1.23224 25.0087 1.34583 25.0087 1.48046C25.0087 1.62349 24.9583 1.7455 24.8573 1.84647C24.7647 1.93902 24.6469 1.9853 24.5039 1.9853ZM24.8321 9.04043H24.1758V2.94449H24.8321V9.04043Z" fill="#202020"/>
<path d="M28.2002 9.19188C27.4009 9.19188 27.0012 8.75015 27.0012 7.86668V3.52506H25.9915V2.94449H27.0012V1.27852H27.6701V2.94449H28.907V3.52506H27.6701V7.76571C27.6701 8.32104 27.8805 8.5987 28.3012 8.5987C28.5788 8.5987 28.806 8.50194 28.9827 8.30841L29.2351 8.81325C28.9659 9.06567 28.6209 9.19188 28.2002 9.19188Z" fill="#202020"/>
<path d="M36.1915 9.19188C35.3165 9.19188 34.6097 8.88477 34.0712 8.27055C33.5327 7.65633 33.2635 6.89486 33.2635 5.98615C33.2635 5.07744 33.5327 4.32018 34.0712 3.71437C34.6097 3.10015 35.3165 2.79304 36.1915 2.79304C37.075 2.79304 37.786 3.10015 38.3245 3.71437C38.863 4.32018 39.1322 5.07744 39.1322 5.98615C39.1322 6.89486 38.863 7.65633 38.3245 8.27055C37.786 8.88477 37.075 9.19188 36.1915 9.19188ZM36.1915 8.5987C36.8815 8.5987 37.4242 8.34628 37.8196 7.84144C38.2235 7.32818 38.4255 6.70976 38.4255 5.98615C38.4255 5.27096 38.2235 4.66095 37.8196 4.15611C37.4242 3.64285 36.8815 3.38623 36.1915 3.38623C35.51 3.38623 34.9673 3.64285 34.5634 4.15611C34.168 4.66095 33.9702 5.27096 33.9702 5.98615C33.9702 6.70134 34.168 7.31556 34.5634 7.82882C34.9673 8.34207 35.51 8.5987 36.1915 8.5987Z" fill="#202020"/>
<path d="M45.5978 9.04043H44.9415V4.91337C44.9415 4.35804 44.8153 3.96679 44.5629 3.73961C44.3105 3.50402 43.9445 3.38623 43.4649 3.38623C43.0862 3.38623 42.7118 3.4872 42.3416 3.68913C41.9714 3.89107 41.6853 4.13928 41.4834 4.43377V9.04043H40.8271V2.94449H41.4834V3.86582C41.7274 3.57975 42.0513 3.33154 42.4552 3.12119C42.8591 2.90242 43.2671 2.79304 43.6794 2.79304C44.9584 2.79304 45.5978 3.45354 45.5978 4.77454V9.04043Z" fill="#202020"/>
<path d="M5.18748 23.7672C3.92538 23.7672 2.86101 23.3633 1.99437 22.5556C1.13614 21.7478 0.707031 20.6961 0.707031 19.4003C0.707031 18.0962 1.13614 17.0444 1.99437 16.2451C2.86101 15.4457 3.92538 15.0461 5.18748 15.0461C6.71883 15.0461 7.87996 15.6729 8.67088 16.9266L7.1816 17.7344C6.97966 17.4146 6.702 17.1538 6.34861 16.9519C6.00364 16.7415 5.6166 16.6363 5.18748 16.6363C4.42181 16.6363 3.79076 16.8972 3.29433 17.4188C2.79791 17.9405 2.5497 18.601 2.5497 19.4003C2.5497 20.1997 2.79791 20.8602 3.29433 21.3818C3.79076 21.9035 4.42181 22.1643 5.18748 22.1643C5.54087 22.1643 5.88164 22.1012 6.20978 21.975C6.53793 21.8488 6.79456 21.6973 6.97966 21.5207V20.511H4.75837V18.946H8.77184V22.1769C7.82106 23.2371 6.62628 23.7672 5.18748 23.7672Z" fill="#202020"/>
<path d="M15.3313 22.8332C14.7423 23.4475 13.9598 23.7546 12.9838 23.7546C12.0078 23.7546 11.2253 23.4475 10.6363 22.8332C10.0557 22.2106 9.76545 21.4491 9.76545 20.5488C9.76545 19.6485 10.0557 18.8913 10.6363 18.2771C11.2253 17.6628 12.0078 17.3557 12.9838 17.3557C13.9598 17.3557 14.7423 17.6628 15.3313 18.2771C15.9203 18.8913 16.2148 19.6485 16.2148 20.5488C16.2148 21.4491 15.9203 22.2106 15.3313 22.8332ZM11.8479 21.8236C12.1256 22.1601 12.5042 22.3284 12.9838 22.3284C13.4634 22.3284 13.842 22.1601 14.1197 21.8236C14.4058 21.4786 14.5488 21.0537 14.5488 20.5488C14.5488 20.0524 14.4058 19.6359 14.1197 19.2994C13.842 18.9544 13.4634 18.7819 12.9838 18.7819C12.5042 18.7819 12.1256 18.9544 11.8479 19.2994C11.5703 19.6359 11.4314 20.0524 11.4314 20.5488C11.4314 21.0537 11.5703 21.4786 11.8479 21.8236Z" fill="#202020"/>
<path d="M22.5785 22.8332C21.9895 23.4475 21.207 23.7546 20.231 23.7546C19.255 23.7546 18.4725 23.4475 17.8835 22.8332C17.3029 22.2106 17.0127 21.4491 17.0127 20.5488C17.0127 19.6485 17.3029 18.8913 17.8835 18.2771C18.4725 17.6628 19.255 17.3557 20.231 17.3557C21.207 17.3557 21.9895 17.6628 22.5785 18.2771C23.1675 18.8913 23.462 19.6485 23.462 20.5488C23.462 21.4491 23.1675 22.2106 22.5785 22.8332ZM19.0951 21.8236C19.3728 22.1601 19.7514 22.3284 20.231 22.3284C20.7106 22.3284 21.0892 22.1601 21.3669 21.8236C21.653 21.4786 21.796 21.0537 21.796 20.5488C21.796 20.0524 21.653 19.6359 21.3669 19.2994C21.0892 18.9544 20.7106 18.7819 20.231 18.7819C19.7514 18.7819 19.3728 18.9544 19.0951 19.2994C18.8175 19.6359 18.6786 20.0524 18.6786 20.5488C18.6786 21.0537 18.8175 21.4786 19.0951 21.8236Z" fill="#202020"/>
<path d="M27.1501 26.0768C26.0983 26.0768 25.2233 25.7739 24.5249 25.1681L25.2443 24.007C25.6987 24.5118 26.3339 24.7642 27.1501 24.7642C27.6044 24.7642 27.9957 24.6422 28.3238 24.3982C28.6604 24.1626 28.8287 23.7714 28.8287 23.2245V22.6061C28.3238 23.2455 27.697 23.5653 26.9481 23.5653C26.1572 23.5653 25.5093 23.296 25.0045 22.7575C24.5081 22.2106 24.2599 21.4449 24.2599 20.4605C24.2599 19.4845 24.5081 18.723 25.0045 18.1761C25.5093 17.6292 26.1572 17.3557 26.9481 17.3557C27.7054 17.3557 28.3322 17.667 28.8287 18.2897V17.5072H30.4442V23.1866C30.4442 23.7419 30.3432 24.2173 30.1413 24.6128C29.9477 25.0083 29.6827 25.307 29.3461 25.5089C29.0096 25.7108 28.6604 25.8539 28.2986 25.938C27.9452 26.0306 27.5624 26.0768 27.1501 26.0768ZM27.453 22.1391C27.7138 22.1391 27.9746 22.0718 28.2355 21.9371C28.4963 21.8025 28.694 21.6384 28.8287 21.4449V19.4761C28.694 19.2741 28.4963 19.11 28.2355 18.9838C27.9831 18.8492 27.7222 18.7819 27.453 18.7819C26.9902 18.7819 26.6158 18.9333 26.3297 19.2363C26.0521 19.5392 25.9132 19.9472 25.9132 20.4605C25.9132 20.9737 26.0521 21.3818 26.3297 21.6847C26.6158 21.9876 26.9902 22.1391 27.453 22.1391Z" fill="#202020"/>
<path d="M33.6368 23.6031H32.0339V15.1849H33.6368V23.6031Z" fill="#202020"/>
<path d="M38.0911 23.7546C37.1487 23.7546 36.3704 23.4601 35.7562 22.8711C35.142 22.2821 34.8349 21.508 34.8349 20.5488C34.8349 19.6485 35.1294 18.8913 35.7183 18.2771C36.3157 17.6628 37.073 17.3557 37.9901 17.3557C38.8988 17.3557 39.6351 17.667 40.1988 18.2897C40.7625 18.9039 41.0444 19.7116 41.0444 20.7129V21.0663H36.5135C36.564 21.4702 36.7449 21.8067 37.0562 22.076C37.3675 22.3452 37.7714 22.4798 38.2678 22.4798C38.537 22.4798 38.8273 22.4252 39.1386 22.3158C39.4584 22.2064 39.7108 22.0591 39.8959 21.874L40.6027 22.909C39.9885 23.4727 39.1513 23.7546 38.0911 23.7546ZM39.492 19.9809C39.4668 19.6359 39.328 19.3246 39.0755 19.0469C38.8315 18.7693 38.4697 18.6304 37.9901 18.6304C37.5358 18.6304 37.1824 18.7693 36.93 19.0469C36.6775 19.3162 36.5303 19.6275 36.4882 19.9809H39.492Z" fill="#202020"/>
<path d="M47.2614 23.6031H45.4692V15.1849H49.407C50.2905 15.1849 50.9804 15.4457 51.4768 15.9674C51.9817 16.4807 52.2341 17.1243 52.2341 17.8984C52.2341 18.6641 51.9817 19.3078 51.4768 19.8294C50.972 20.3511 50.2821 20.6119 49.407 20.6119H47.2614V23.6031ZM49.1672 19.0343C49.529 19.0343 49.8235 18.9333 50.0507 18.7314C50.2863 18.5211 50.4041 18.2434 50.4041 17.8984C50.4041 17.5535 50.2863 17.28 50.0507 17.0781C49.8235 16.8677 49.529 16.7625 49.1672 16.7625H47.2614V19.0343H49.1672Z" fill="#202020"/>
<path d="M54.91 23.6031H53.3072V15.1849H54.91V23.6031Z" fill="#202020"/>
<path d="M61.7624 23.6031H60.1595V22.9721C59.722 23.4937 59.0783 23.7546 58.2285 23.7546C57.6816 23.7546 57.1894 23.5779 56.7518 23.2245C56.3227 22.8627 56.1082 22.3663 56.1082 21.7352C56.1082 21.0789 56.3185 20.5867 56.7392 20.2586C57.1683 19.9304 57.6647 19.7663 58.2285 19.7663C59.0951 19.7663 59.7388 20.0145 60.1595 20.511V19.6906C60.1595 19.3793 60.0375 19.1311 59.7935 18.946C59.5495 18.7609 59.2255 18.6683 58.8217 18.6683C58.157 18.6683 57.5638 18.9081 57.0421 19.3877L56.4363 18.3149C57.1599 17.6755 58.0476 17.3557 59.0993 17.3557C59.8818 17.3557 60.5213 17.5366 61.0177 17.8984C61.5141 18.2602 61.7624 18.8492 61.7624 19.6654V23.6031ZM58.8721 22.6692C59.4695 22.6692 59.8987 22.4925 60.1595 22.1391V21.3818C59.8987 21.0284 59.4695 20.8517 58.8721 20.8517C58.544 20.8517 58.2706 20.9359 58.0518 21.1042C57.833 21.264 57.7236 21.487 57.7236 21.7731C57.7236 22.0507 57.833 22.2695 58.0518 22.4294C58.2706 22.5892 58.544 22.6692 58.8721 22.6692Z" fill="#202020"/>
<path d="M63.1376 25.9885L63.3774 24.5497C63.5289 24.617 63.6972 24.6507 63.8823 24.6507C64.3114 24.6507 64.5933 24.5034 64.7279 24.2089L64.9551 23.6915L62.4814 17.5072H64.1978L65.7881 21.7478L67.3783 17.5072H69.1074L66.2424 24.6002C66.0321 25.1387 65.7376 25.5131 65.3589 25.7234C64.9803 25.9422 64.5049 26.06 63.9328 26.0768C63.6383 26.0768 63.3732 26.0474 63.1376 25.9885Z" fill="#202020"/>
</svg>
