<svg width="99" height="52" viewBox="0 0 99 52" fill="none" xmlns="http://www.w3.org/2000/svg">
<g clip-path="url(#clip0_8109_1234)">
<mask id="mask0_8109_1234" style="mask-type:luminance" maskUnits="userSpaceOnUse" x="0" y="17" width="99" height="25">
<path d="M99 17H0V41.9599H99V17Z" fill="white"/>
</mask>
<g mask="url(#mask0_8109_1234)">
<path d="M19.9277 17.5158H23.3021V20.0315C23.8798 19.0616 24.7006 18.319 25.7951 17.7886C26.8894 17.2581 28.1207 16.9854 29.5191 16.9854C31.2063 16.9854 32.696 17.3794 34.0032 18.1674C35.3105 18.9555 36.3136 20.0618 37.0281 21.4863C37.7426 22.9109 38.1072 24.5476 38.1072 26.3965C38.1072 28.2454 37.7426 29.9275 37.0281 31.3369C36.3136 32.7615 35.2952 33.8677 34.0032 34.6558C32.7112 35.4439 31.2063 35.8379 29.5191 35.8379C28.2271 35.8379 27.0871 35.5954 26.0838 35.1408C25.0806 34.6709 24.2902 34.0041 23.7277 33.1404V41.9301H19.9429V17.5158H19.9277ZM25.1109 30.761C26.0838 31.8825 27.2846 32.4432 28.8807 32.4432C30.4768 32.4432 31.7079 31.8825 32.696 30.761C33.6841 29.6396 34.1705 28.2454 34.1705 26.4268C34.1705 24.6082 33.6841 23.2443 32.696 22.1228C31.7079 21.0014 30.4768 20.4406 28.8807 20.4406C27.2846 20.4406 26.0838 21.0014 25.1109 22.1228C24.1382 23.2443 23.6518 24.6234 23.6518 26.4268C23.6518 28.2302 24.1382 29.6396 25.1109 30.761Z" fill="black"/>
<path d="M44.4302 34.6862C43.123 33.8981 42.1198 32.7917 41.4053 31.3672C40.691 29.9426 40.3262 28.2908 40.3262 26.4267C40.3262 24.5627 40.691 22.9411 41.4053 21.5166C42.1198 20.092 43.1382 18.9857 44.4302 18.1977C45.7222 17.4096 47.2271 17.0156 48.9143 17.0156C50.2976 17.0156 51.5288 17.2733 52.608 17.7885C53.6873 18.3038 54.5232 19.0312 55.1161 19.9708V17.5157H58.4601V35.3377H55.1161V32.8524C54.5232 33.792 53.6873 34.5193 52.608 35.0649C51.5288 35.5953 50.2976 35.8681 48.9143 35.8681C47.2271 35.8681 45.7374 35.4741 44.4302 34.6862ZM45.7071 30.7913C46.6799 31.8976 47.9568 32.4432 49.5223 32.4432C51.0879 32.4432 52.3496 31.8976 53.3073 30.7913C54.2648 29.685 54.7361 28.2302 54.7361 26.4267C54.7361 24.6233 54.2648 23.1988 53.3073 22.0925C52.3496 20.9862 51.0879 20.4406 49.5223 20.4406C47.9568 20.4406 46.6799 21.0013 45.7071 22.0925C44.7342 23.1988 44.2326 24.6385 44.2326 26.4267C44.2326 28.215 44.719 29.685 45.7071 30.7913Z" fill="black"/>
<path d="M63.0358 38.6268H71.472C72.6881 38.6268 73.6153 38.2935 74.2537 37.6418C74.8921 36.9901 75.1962 36.0353 75.1962 34.8078V32.277C74.5578 33.1105 73.7826 33.747 72.8552 34.1561C71.9281 34.5653 70.9096 34.7624 69.7848 34.7624C68.1279 34.7624 66.6383 34.3986 65.3462 33.656C64.0391 32.9135 63.0358 31.8678 62.3215 30.5038C61.607 29.1399 61.2422 27.5941 61.2422 25.8362C61.2422 24.0782 61.607 22.5779 62.3215 21.2443C63.0358 19.9107 64.0542 18.865 65.3462 18.1375C66.6536 17.395 68.1279 17.0312 69.7848 17.0312C70.9552 17.0312 72.0345 17.2434 73.0225 17.6829C74.0104 18.1224 74.8465 18.7589 75.5153 19.6227V17.5162H78.8593V34.5047C78.8593 37.0204 78.2209 38.8996 76.9594 40.1271C75.6978 41.3547 73.9042 41.9608 71.6088 41.9608H63.0206V38.6268H63.0358ZM66.5472 29.8067C67.4743 30.8221 68.6751 31.3374 70.1496 31.3374C71.6241 31.3374 72.84 30.8221 73.752 29.8067C74.6794 28.7914 75.1353 27.4577 75.1353 25.8362C75.1353 24.2146 74.6794 22.9265 73.752 21.9262C72.8249 20.926 71.6241 20.4259 70.1496 20.4259C68.6751 20.4259 67.4592 20.926 66.5472 21.9262C65.6198 22.9265 65.1639 24.2298 65.1639 25.8362C65.1639 27.4426 65.6198 28.7914 66.5472 29.8067Z" fill="black"/>
<path d="M84.1195 32.958C82.4931 31.3667 81.6875 29.1541 81.6875 26.3353C81.6875 24.4562 82.0523 22.8194 82.7818 21.41C83.5115 20.0006 84.5756 18.9095 85.8828 18.1518C87.19 17.3789 88.7252 17 90.4124 17C93.0573 17 95.155 17.8032 96.6903 19.3945C98.2255 20.9857 99.0007 23.2589 99.0007 26.0019C99.0007 26.396 98.9703 26.9718 98.8943 27.6993H85.4724C85.5787 29.1996 86.126 30.1695 87.1444 30.9879C88.1629 31.8062 89.6372 32.1396 91.5676 32.1396H97.891V35.3525H91.2941C88.102 35.3525 85.746 34.5492 84.1347 32.958H84.1195ZM95.231 24.7896V24.6077C95.231 23.2438 94.8054 22.1375 93.9541 21.304C93.103 20.4704 91.9325 20.0461 90.4278 20.0461C88.9229 20.0461 87.8132 20.4856 86.9164 21.3494C86.0196 22.2284 85.5483 23.365 85.4724 24.7744H95.231V24.7896Z" fill="black"/>
<path d="M0 17.5156H4.4689L11.1723 26.4266L17.8764 35.3529H13.4074L8.93817 29.4016L4.4689 35.3529H0L6.70337 26.4266L0 17.5156Z" fill="black"/>
<path d="M10.6405 21.1982L13.4069 17.5156H17.8758L13.4982 23.3351C12.7837 24.2898 11.3549 24.2898 10.6405 23.3351C10.1693 22.6986 10.1693 21.8347 10.6405 21.1982Z" fill="black"/>
</g>
</g>
<defs>
<clipPath id="clip0_8109_1234">
<rect width="99" height="24.3158" fill="white" transform="translate(0 17)"/>
</clipPath>
</defs>
</svg>
