<svg width="29" height="31" viewBox="0 0 29 31" fill="none" xmlns="http://www.w3.org/2000/svg">
<path d="M0.709169 3.58058C0.708645 7.50655 0.708907 11.4325 0.708907 15.3585C0.708645 19.4591 0.701314 23.5594 0.717547 27.6603C0.719642 28.2198 0.777508 28.7953 0.91759 29.3352C1.23022 30.5392 2.24431 31.0809 3.43147 30.6884C3.92241 30.5261 4.38717 30.2679 4.84093 30.0129C10.273 26.9607 15.7047 23.9074 21.1281 20.8392C23.0241 19.7665 24.903 18.6631 26.7778 17.5534C28.99 16.244 28.9662 14.5227 26.7333 13.1986C26.6209 13.1318 26.5081 13.0653 26.3944 13.0006C19.3162 8.97989 12.2378 4.95993 5.15959 0.939187C1.9809 -0.86643 0.70943 -0.112082 0.709169 3.58058Z" fill="#ECECEC"/>
<path d="M1.72461 1.7671C1.72461 10.9031 1.72461 19.8783 1.72461 28.6953C6.22635 24.2263 10.7472 19.7382 15.2259 15.2919C10.8347 10.8931 6.36983 6.42044 1.72461 1.7671ZM2.94372 0.726562C2.92722 0.786523 2.91046 0.846745 2.89397 0.906705C7.37947 5.38226 11.865 9.85781 16.2217 14.2051C17.4164 13.0258 18.7125 11.7467 20.062 10.4147C14.3791 7.19861 8.66142 3.96259 2.94372 0.726562ZM20.0623 20.3627C18.6905 18.9906 17.4101 17.7103 16.2785 16.5783C11.8553 20.9892 7.38549 25.4465 2.9157 29.9037C2.93089 29.9537 2.94633 30.0034 2.96152 30.0534C8.67739 26.8143 14.3933 23.5751 20.0623 20.3627ZM16.9095 15.1307C18.4967 16.7061 19.9347 18.1339 21.4089 19.597C23.0592 18.6558 24.8586 17.6739 26.6113 16.6147C27.7895 15.9028 27.8532 14.9633 26.7467 14.2713C25.085 13.2321 23.3624 12.2884 21.6398 11.3516C21.4214 11.233 20.9436 11.2874 20.7619 11.454C19.4171 12.6864 18.1171 13.9676 16.9095 15.1307Z" fill="#202020"/>
</svg>
